<svg width="84" height="24" viewBox="0 0 84 24" fill="none" xmlns="http://www.w3.org/2000/svg">
<path d="M14.968 23C14.0933 23 13.4427 22.872 13.016 22.616C12.5893 22.36 12.28 22.04 12.088 21.656C10.9787 19.3733 9.93333 17.1867 8.952 15.096C7.992 13.0053 7.01067 10.8933 6.008 8.76C6.02933 11.064 6.06133 13.3573 6.104 15.64C6.14667 17.9227 6.18933 20.216 6.232 22.52C6.232 22.84 6.06133 23 5.72 23H3.96C2.744 23 1.88 22.7653 1.368 22.296C0.877333 21.8053 0.632 21.0907 0.632 20.152C0.632 19.896 0.642667 19.4693 0.664 18.872C0.706667 18.2533 0.76 17.528 0.824 16.696C0.888 15.864 0.952 14.9573 1.016 13.976C1.10133 12.9733 1.18667 11.96 1.272 10.936C1.4 9.31467 1.50667 7.97067 1.592 6.904C1.67733 5.83733 1.74133 4.94133 1.784 4.216C1.848 3.46933 1.89067 2.84 1.912 2.328C1.93333 1.79467 1.95467 1.272 1.976 0.759998C1.976 0.439999 2.14667 0.279999 2.488 0.279999H5.048C5.752 0.279999 6.328 0.365332 6.776 0.535999C7.224 0.685332 7.58667 0.898665 7.864 1.176C8.16267 1.45333 8.39733 1.77333 8.568 2.136C8.73867 2.47733 8.89867 2.84 9.048 3.224C9.56 4.54667 10.008 5.688 10.392 6.648C10.7973 7.608 11.1493 8.45067 11.448 9.176C11.7467 9.90133 12.0027 10.5307 12.216 11.064C12.4507 11.5973 12.664 12.088 12.856 12.536C13.048 12.984 13.24 13.4213 13.432 13.848C13.624 14.2533 13.8267 14.7013 14.04 15.192C14.04 13.9333 14.0293 12.6427 14.008 11.32C14.008 9.976 13.9973 8.67467 13.976 7.416C13.976 6.136 13.9653 4.90933 13.944 3.736C13.944 2.56267 13.944 1.50667 13.944 0.567999C13.944 0.375999 14.1253 0.279999 14.488 0.279999H16.248C16.952 0.279999 17.5067 0.354666 17.912 0.504C18.3387 0.631999 18.6693 0.834666 18.904 1.112C19.1387 1.368 19.288 1.688 19.352 2.072C19.4373 2.456 19.48 2.89333 19.48 3.384C19.48 3.91733 19.448 4.73867 19.384 5.848C19.32 6.936 19.2453 8.16267 19.16 9.528C19.0747 10.8933 18.9787 12.312 18.872 13.784C18.7653 15.2347 18.6587 16.5787 18.552 17.816C18.4667 19.0533 18.3813 20.1093 18.296 20.984C18.232 21.8373 18.1893 22.3387 18.168 22.488C18.168 22.6587 18.104 22.7867 17.976 22.872C17.8693 22.9573 17.7413 23 17.592 23H14.968Z" fill="#C60000"/>
<path d="M29.355 23.32C27.883 23.32 26.6563 23.1173 25.675 22.712C24.715 22.2853 23.947 21.7093 23.371 20.984C22.795 20.2587 22.3897 19.416 22.155 18.456C21.9203 17.4747 21.803 16.4293 21.803 15.32C21.803 14.04 21.9523 12.792 22.251 11.576C22.571 10.3387 23.1043 9.24 23.851 8.28C24.5977 7.32 25.579 6.552 26.795 5.976C28.0323 5.37867 29.5683 5.08 31.403 5.08C34.091 5.08 36.011 5.74133 37.163 7.064C38.3363 8.36533 38.923 10.2 38.923 12.568C38.923 13.2293 38.8697 13.9653 38.763 14.776C38.6777 15.5653 38.4963 16.3547 38.219 17.144C37.963 17.9333 37.6003 18.7013 37.131 19.448C36.683 20.1947 36.107 20.856 35.403 21.432C34.699 22.008 33.8457 22.4667 32.843 22.808C31.8617 23.1493 30.699 23.32 29.355 23.32ZM30.859 9.336C30.0483 9.336 29.3977 9.54933 28.907 9.976C28.4377 10.3813 28.075 10.8827 27.819 11.48C27.5843 12.056 27.4243 12.6747 27.339 13.336C27.275 13.976 27.243 14.52 27.243 14.968C27.243 16.376 27.467 17.4107 27.915 18.072C28.363 18.7333 29.003 19.064 29.835 19.064C30.5817 19.064 31.1897 18.8293 31.659 18.36C32.1497 17.8907 32.523 17.3253 32.779 16.664C33.0563 16.0027 33.2377 15.3093 33.323 14.584C33.4297 13.8587 33.483 13.2507 33.483 12.76C33.483 11.6933 33.2803 10.8613 32.875 10.264C32.491 9.64533 31.819 9.336 30.859 9.336ZM48.192 9.72C48.128 10.5307 48.0533 11.3307 47.968 12.12C47.904 12.9093 47.84 13.656 47.776 14.36C47.712 15.064 47.6587 15.6933 47.616 16.248C47.5947 16.8027 47.584 17.2293 47.584 17.528C47.584 18.0827 47.648 18.456 47.776 18.648C47.904 18.8187 48.1173 18.904 48.416 18.904C48.6507 18.904 48.8533 18.8613 49.024 18.776C49.1947 18.6907 49.3547 18.5947 49.504 18.488C49.6533 18.3813 49.7813 18.2853 49.888 18.2C50.016 18.1147 50.1547 18.072 50.304 18.072C50.4533 18.072 50.592 18.1573 50.72 18.328C50.848 18.4987 50.912 18.8933 50.912 19.512C50.912 20.6853 50.592 21.6133 49.952 22.296C49.312 22.9787 48.2133 23.32 46.656 23.32C45.12 23.32 43.9787 22.968 43.232 22.264C42.5067 21.5387 42.144 20.44 42.144 18.968C42.144 18.648 42.1547 18.2747 42.176 17.848C42.2187 17.4 42.272 16.824 42.336 16.12C42.4 15.416 42.4747 14.552 42.56 13.528C42.6667 12.504 42.7733 11.2347 42.88 9.72H41.184C41.0133 9.72 40.9067 9.688 40.864 9.624C40.8427 9.53867 40.832 9.42133 40.832 9.272L40.928 7.64C40.9493 7.36267 40.9813 7.096 41.024 6.84C41.088 6.56267 41.1947 6.31733 41.344 6.104C41.5147 5.89067 41.7493 5.72 42.048 5.592C42.3467 5.464 42.7413 5.4 43.232 5.4C43.3813 5.016 43.552 4.55733 43.744 4.024C43.936 3.49067 44.128 2.97867 44.32 2.488C44.512 1.976 44.6933 1.54933 44.864 1.208C45.056 0.866666 45.2267 0.695999 45.376 0.695999H46.304C47.2 0.695999 47.8187 0.973333 48.16 1.528C48.5013 2.08267 48.672 2.744 48.672 3.512C48.672 3.93867 48.64 4.568 48.576 5.4H51.936C52.2773 5.4 52.448 5.54933 52.448 5.848L52.32 7.576C52.2773 8.216 52.096 8.73867 51.776 9.144C51.4773 9.528 50.848 9.72 49.888 9.72H48.192ZM61.2665 23.32C60.3278 23.32 59.3892 23.2027 58.4505 22.968C57.5332 22.7333 56.7012 22.328 55.9545 21.752C55.2292 21.176 54.6318 20.408 54.1625 19.448C53.6932 18.488 53.4585 17.2827 53.4585 15.832C53.4585 15.2987 53.5012 14.6587 53.5865 13.912C53.6718 13.1653 53.8318 12.3973 54.0665 11.608C54.3225 10.8187 54.6638 10.04 55.0905 9.272C55.5385 8.48267 56.1145 7.77867 56.8185 7.16C57.5225 6.54133 58.3758 6.04 59.3785 5.656C60.3812 5.272 61.5758 5.08 62.9625 5.08C64.0718 5.08 65.0105 5.208 65.7785 5.464C66.5465 5.72 67.1652 6.072 67.6345 6.52C68.1038 6.94667 68.4452 7.448 68.6585 8.024C68.8718 8.6 68.9785 9.21867 68.9785 9.88C68.9785 10.8613 68.7758 11.6933 68.3705 12.376C67.9865 13.0587 67.4745 13.6347 66.8345 14.104C66.2158 14.552 65.5225 14.904 64.7545 15.16C63.9865 15.416 63.2292 15.6187 62.4825 15.768C61.7358 15.896 61.0425 15.9813 60.4025 16.024C59.7838 16.0453 59.3038 16.056 58.9625 16.056C58.9625 16.4613 59.0158 16.8667 59.1225 17.272C59.2505 17.656 59.4318 17.9973 59.6665 18.296C59.9012 18.5947 60.2105 18.84 60.5945 19.032C60.9785 19.224 61.4478 19.32 62.0025 19.32C62.5572 19.32 62.9838 19.2347 63.2825 19.064C63.6025 18.872 63.8585 18.6693 64.0505 18.456C64.2425 18.2213 64.4025 18.0187 64.5305 17.848C64.6798 17.656 64.8718 17.56 65.1065 17.56C65.2132 17.56 65.3945 17.592 65.6505 17.656C65.9278 17.6987 66.2052 17.8053 66.4825 17.976C66.7598 18.1467 67.0052 18.3813 67.2185 18.68C67.4318 18.9787 67.5385 19.3627 67.5385 19.832C67.5385 20.4507 67.3465 20.984 66.9625 21.432C66.5785 21.88 66.0772 22.2427 65.4585 22.52C64.8612 22.7973 64.1892 23 63.4425 23.128C62.6958 23.256 61.9705 23.32 61.2665 23.32ZM61.8745 9.336C61.4052 9.336 60.9998 9.47467 60.6585 9.752C60.3385 10.008 60.0612 10.3387 59.8265 10.744C59.6132 11.1493 59.4425 11.5973 59.3145 12.088C59.2078 12.5787 59.1225 13.048 59.0585 13.496C60.3812 13.4747 61.4478 13.2507 62.2585 12.824C63.0905 12.3973 63.5065 11.7893 63.5065 11C63.5065 10.5733 63.3678 10.1893 63.0905 9.848C62.8345 9.50667 62.4292 9.336 61.8745 9.336ZM78.3618 5.08C80.1751 5.08 81.5084 5.44267 82.3618 6.168C83.2151 6.872 83.6418 7.77867 83.6418 8.888C83.6418 9.82667 83.3431 10.5413 82.7458 11.032C82.1698 11.5227 81.3271 11.768 80.2178 11.768C79.9191 11.768 79.7164 11.736 79.6098 11.672C79.5031 11.608 79.4498 11.4907 79.4498 11.32C79.4498 11.128 79.4284 10.9147 79.3858 10.68C79.3644 10.424 79.2898 10.1893 79.1618 9.976C79.0551 9.74133 78.8738 9.54933 78.6178 9.4C78.3831 9.25067 78.0418 9.176 77.5938 9.176C76.9964 9.176 76.5164 9.32533 76.1538 9.624C75.7911 9.90133 75.6098 10.2533 75.6098 10.68C75.6098 11.128 75.7911 11.4907 76.1538 11.768C76.5378 12.024 77.0071 12.2693 77.5618 12.504C78.1378 12.7387 78.7564 12.984 79.4178 13.24C80.0791 13.4747 80.6871 13.7947 81.2418 14.2C81.8178 14.6053 82.2871 15.1173 82.6498 15.736C83.0338 16.3333 83.2258 17.112 83.2258 18.072C83.2258 19.608 82.6818 20.8667 81.5938 21.848C80.5058 22.8293 78.8738 23.32 76.6978 23.32C76.1004 23.32 75.4071 23.2667 74.6178 23.16C73.8498 23.0747 73.1138 22.936 72.4098 22.744C71.7058 22.5307 71.1084 22.2533 70.6178 21.912C70.1484 21.5707 69.9138 21.144 69.9138 20.632C69.9138 20.44 69.9458 20.2053 70.0098 19.928C70.0951 19.6507 70.2124 19.384 70.3618 19.128C70.5324 18.872 70.7244 18.6587 70.9378 18.488C71.1724 18.296 71.4498 18.2 71.7698 18.2C72.0258 18.2 72.2604 18.264 72.4738 18.392C72.6871 18.52 72.9324 18.6587 73.2098 18.808C73.5084 18.936 73.8711 19.064 74.2977 19.192C74.7244 19.32 75.2898 19.384 75.9938 19.384C76.5271 19.384 76.9964 19.32 77.4018 19.192C77.8284 19.064 78.0417 18.776 78.0417 18.328C78.0417 17.9227 77.8711 17.6027 77.5298 17.368C77.1884 17.112 76.7511 16.8773 76.2178 16.664C75.7058 16.4507 75.1404 16.2267 74.5218 15.992C73.9244 15.736 73.3591 15.4053 72.8258 15C72.3138 14.5947 71.8871 14.0827 71.5458 13.464C71.2044 12.824 71.0338 12.0027 71.0338 11C71.0338 9.912 71.2471 8.99467 71.6738 8.248C72.1218 7.48 72.6871 6.86133 73.3698 6.392C74.0738 5.92267 74.8631 5.592 75.7378 5.4C76.6124 5.18667 77.4871 5.08 78.3618 5.08Z" fill="#FFFEFE"/>
</svg>
